<svg xmlns="http://www.w3.org/2000/svg" width="524.707" height="75.635" viewBox="0 0 524.707 75.635">
  <path id="Path_277" data-name="Path 277" d="M7.861-71.729h9.814V-42.09h37.3V-71.729h9.814V0H54.98V-33.545h-37.3V0H7.861Zm92.578,18.262a23.854,23.854,0,0,1,10.791,2.612,19.9,19.9,0,0,1,7.959,6.763,23.331,23.331,0,0,1,3.516,9.229,60.379,60.379,0,0,1,.781,11.523H85.156q.244,7.959,3.76,12.769T99.8-5.762A14.076,14.076,0,0,0,110.791-10.3a15.308,15.308,0,0,0,3.32-6.1h8.643a18.2,18.2,0,0,1-2.271,6.421A22.837,22.837,0,0,1,116.162-4.2a20.482,20.482,0,0,1-9.912,5.273,30.111,30.111,0,0,1-7.178.781,22.023,22.023,0,0,1-16.553-7.1q-6.787-7.1-6.787-19.9,0-12.6,6.836-20.459T100.439-53.467Zm14.014,23.145a22.771,22.771,0,0,0-2.49-9.131Q108.35-45.8,99.9-45.8a13.369,13.369,0,0,0-10.156,4.37A16.509,16.509,0,0,0,85.4-30.322Zm20.068-41.406h8.789V0h-8.789Zm22.217,0h8.789V0h-8.789ZM199.463-5.664q8.74,0,11.987-6.616A32.962,32.962,0,0,0,214.7-27q0-7.324-2.344-11.914-3.711-7.227-12.793-7.227-8.057,0-11.719,6.152a28.517,28.517,0,0,0-3.662,14.844q0,8.35,3.662,13.916T199.463-5.664Zm.342-48.145a23.68,23.68,0,0,1,17.09,6.738q6.982,6.738,6.982,19.824,0,12.646-6.152,20.9T198.633,1.9q-10.791,0-17.139-7.3T175.146-25q0-13.184,6.689-21T199.8-53.809Zm69.824,30.664a19.6,19.6,0,0,0,2.881,9.912Q277.344-6.1,289.551-6.1a30.163,30.163,0,0,0,9.961-1.562q8.691-3.027,8.691-10.84,0-5.859-3.662-8.35Q300.83-29.3,292.92-31.1L283.2-33.3q-9.521-2.148-13.477-4.736-6.836-4.492-6.836-13.428a20.677,20.677,0,0,1,6.689-15.869q6.689-6.2,18.945-6.2,11.279,0,19.165,5.444t7.886,17.407h-9.131q-.732-5.762-3.125-8.838-4.443-5.615-15.088-5.615-8.594,0-12.354,3.613a11.309,11.309,0,0,0-3.76,8.4,8.2,8.2,0,0,0,4.395,7.715q2.881,1.563,13.037,3.906l10.059,2.295q7.275,1.66,11.23,4.541,6.836,5.029,6.836,14.6,0,11.914-8.667,17.041A38.815,38.815,0,0,1,288.867,2.1q-13.379,0-20.947-6.836-7.568-6.787-7.422-18.408Zm59.18-28.906h8.936V0h-8.936Zm0-19.678h8.936v9.961h-8.936Zm22.217,19.434h8.691v7.422a29.213,29.213,0,0,1,5.664-5.615,17.034,17.034,0,0,1,9.863-2.979q6.25,0,10.059,3.076a16.079,16.079,0,0,1,3.906,5.176,19,19,0,0,1,6.885-6.226,19.2,19.2,0,0,1,8.887-2.026q10.547,0,14.355,7.617,2.051,4.1,2.051,11.035V0h-9.131V-36.328q0-5.225-2.612-7.178a10.339,10.339,0,0,0-6.372-1.953,12.649,12.649,0,0,0-8.911,3.467q-3.735,3.467-3.735,11.572V0h-8.936V-34.131q0-5.322-1.27-7.764-2-3.662-7.471-3.662a12.891,12.891,0,0,0-9.058,3.857q-4.077,3.857-4.077,13.965V0h-8.789ZM455.078-5.664q8.74,0,11.987-6.616A32.962,32.962,0,0,0,470.313-27q0-7.324-2.344-11.914-3.711-7.227-12.793-7.227-8.057,0-11.719,6.152a28.517,28.517,0,0,0-3.662,14.844q0,8.35,3.662,13.916T455.078-5.664Zm.342-48.145a23.68,23.68,0,0,1,17.09,6.738q6.982,6.738,6.982,19.824,0,12.646-6.152,20.9T454.248,1.9q-10.791,0-17.139-7.3T430.762-25q0-13.184,6.689-21T455.42-53.809Zm34.521,1.514h8.35v7.422a23.419,23.419,0,0,1,7.861-6.592,20.964,20.964,0,0,1,9.229-2q11.133,0,15.039,7.764,2.148,4.248,2.148,12.158V0h-8.936V-32.959a17.847,17.847,0,0,0-1.416-7.715q-2.344-4.883-8.5-4.883a17.3,17.3,0,0,0-5.127.635,13.2,13.2,0,0,0-6.348,4.3,12.936,12.936,0,0,0-2.856,5.347,35.989,35.989,0,0,0-.659,7.886V0h-8.789Z" transform="translate(-7.861 73.535)"/>
</svg>
